<svg xmlns="http://www.w3.org/2000/svg" viewBox="0 0 32 32">
  <defs>
    <linearGradient id="g" x1="0%" y1="0%" x2="100%" y2="100%">
      <stop offset="0%" style="stop-color:#2563EB"/>
      <stop offset="100%" style="stop-color:#1D4ED8"/>
    </linearGradient>
  </defs>
  <rect width="32" height="32" rx="8" fill="url(#g)"/>
  <path d="M16 7c-5 0-9 3.6-9 8 0 1.5.4 2.9 1.2 4.1L7 24l5.2-1.3c1.2.5 2.5.8 3.8.8 5 0 9-3.6 9-8s-4-8-9-8z" fill="#25D366"/>
  <path d="M20.5 18.3c-.3-.1-1.6-.8-1.9-.9-.3-.1-.5-.1-.7.1-.2.3-.7.9-.9 1.1-.2.2-.3.2-.6.1-.3-.1-1.3-.5-2.5-1.5-.9-.8-1.5-1.8-1.7-2.1-.2-.3 0-.4.1-.6.1-.1.3-.3.4-.5.1-.2.2-.3.3-.5.1-.2 0-.3 0-.5 0-.1-.7-1.6-.9-2.2-.3-.6-.5-.5-.7-.5h-.6c-.2 0-.5.1-.8.4-.3.3-1 1-1 2.4s1 2.7 1.2 2.9c.1.2 2 3 4.8 4.2.7.3 1.2.5 1.6.6.7.2 1.3.2 1.8.1.5-.1 1.6-.6 1.8-1.2.2-.6.2-1.1.2-1.2 0-.1-.2-.2-.5-.3z" fill="white"/>
</svg>
